<svg width="300px" height="300px" viewBox="0 0 300 300" fill="none">
  <path width="48" height="48" fill="white" d="M0 0H300V300H0V0z"/>
  <path d="M275 25H193L168 89C196 95 220 113 232 137L275 25Z" fill="#2F88FF" stroke="black" stroke-width="25" stroke-linecap="round" stroke-linejoin="round"/>
  <path d="M106 25H25L67 137C79 113 103 95 131 89L106 25Z" fill="#2F88FF" stroke="black" stroke-width="25" stroke-linecap="round" stroke-linejoin="round"/>
  <path d="M243 181C243 233 201 275 150 275C98 275 56 233 56 181 C56 165 60 150 67 137 C79 113 103 95 131 89 C137 88 143 87 150 87 C156 87 162 88 168 89 C196 95 220 113 232 137C239 150.561 243.75 165.449 243 181Z" fill="#2F88FF" stroke="black" stroke-width="25" stroke-linecap="round" stroke-linejoin="round"/>
  <svg viewBox="-115 -25 300 100">
    A
    <path d="M5,90 l30,-80 30,80 M20,50 l30,0"/>
    B
    <path d="M5,5 c80,0 80,45 0,45 c80,0 80,45 0,45z"/>
  </svg>
  <text x="50%" y="80%" stroke="black" dominant-baseline="middle" text-anchor="middle">125</text>
</svg>
